<svg xmlns="http://www.w3.org/2000/svg" version="1.1" viewBox="-5.0 -10.0 110.0 120.0">
 <path d="m38.703 86.734c0.74219 0.75781 0.72656 1.9727-0.03125 2.7148-0.37109 0.36719-0.85938 0.55078-1.3438 0.55078-0.5 0-1-0.19141-1.375-0.57812-7.8438-8.0117-7.8438-19.586 0.007813-27.516l7.3594-7.668c0.73047-0.75781 1.9531-0.78516 2.7148-0.050781 0.76562 0.73047 0.78906 1.9531 0.050782 2.7148l-7.3789 7.6836c-6.4219 6.4961-6.418 15.598-0.003906 22.148zm27.379-63.301c0.0625 0.54297 0.0625 1.25-0.011719 1.9414-0.13672 3.6523-1.7695 7.1055-4.7656 10.035l-7.3789 7.6836c-0.73438 0.76562-0.71484 1.9844 0.050781 2.7148 0.375 0.35938 0.85156 0.53516 1.332 0.53516 0.50391 0 1.0078-0.19922 1.3828-0.58984l7.3359-7.6445c3.668-3.582 5.7031-7.9414 5.8672-12.449 0.09375-0.83594 0.09375-1.832 0.011719-2.5234-0.17578-4.5898-2.2656-9.0625-5.8789-12.598-0.75391-0.73437-1.9766-0.72656-2.7148 0.03125-0.74219 0.75781-0.72656 1.9727 0.03125 2.7148 2.9102 2.8516 4.5859 6.4023 4.7383 10.148zm-27.43 11.969c-2.9531-2.9062-4.5742-6.3672-4.7148-10.27-0.082031-0.49219-0.082031-1.0742 0.03125-1.832 0.10938-3.6328 1.7305-7.0898 4.6836-10 0.75781-0.74609 0.76562-1.9609 0.023437-2.7148-0.75391-0.76172-1.9688-0.76172-2.7148-0.023438-3.6719 3.6211-5.6875 7.9805-5.8008 12.344-0.16406 0.92969-0.16406 1.9531-0.03125 2.6172 0.14453 4.6367 2.1562 9 5.793 12.582l25.422 26.469c6.4023 6.5234 6.4023 15.629 0.003906 22.148-0.74219 0.75781-0.73047 1.9727 0.023438 2.7148 0.375 0.36719 0.86328 0.55078 1.3477 0.55078 0.5 0 0.99609-0.19141 1.3711-0.57422 7.8281-7.9766 7.8281-19.555 0.015625-27.52zm2.2891-13.953h18.062c1.0625 0 1.9219-0.85938 1.9219-1.9219s-0.85938-1.9219-1.9219-1.9219h-18.062c-1.0625 0-1.9219 0.85938-1.9219 1.9219s0.85938 1.9219 1.9219 1.9219zm20.902 5.6875c0-1.0625-0.85938-1.9219-1.9219-1.9219h-19.828c-1.0625 0-1.9219 0.85938-1.9219 1.9219s0.85938 1.9219 1.9219 1.9219h19.828c1.0625-0.003906 1.9219-0.86328 1.9219-1.9219zm-15.832 9.5312h7.9922c1.0625 0 1.9219-0.85938 1.9219-1.9219s-0.85938-1.9219-1.9219-1.9219h-7.9922c-1.0625 0-1.9219 0.85938-1.9219 1.9219s0.85938 1.9219 1.9219 1.9219zm7.9922 26.664h-7.9922c-1.0625 0-1.9219 0.85938-1.9219 1.9219s0.85938 1.9219 1.9219 1.9219h7.9922c1.0625 0 1.9219-0.85938 1.9219-1.9219s-0.85938-1.9219-1.9219-1.9219zm-15.75 9.5312c0 1.0625 0.85938 1.9219 1.9219 1.9219h19.75c1.0625 0 1.9219-0.85938 1.9219-1.9219s-0.85938-1.9219-1.9219-1.9219h-19.75c-1.0625 0-1.9219 0.85938-1.9219 1.9219zm20.672 5.6836h-17.832c-1.0625 0-1.9219 0.85938-1.9219 1.9219s0.85938 1.9219 1.9219 1.9219h17.832c1.0625 0 1.9219-0.85938 1.9219-1.9219s-0.85938-1.9219-1.9219-1.9219z"/>
</svg>
